<svg width="300" height="300" viewBox="0 0 300 300" fill="none" xmlns="http://www.w3.org/2000/svg">
<rect width="300" height="300" rx="150" fill="white"/>
<path fill-rule="evenodd" clip-rule="evenodd" d="M98.5129 159.193C98.1547 156.719 97.9283 154.2 97.841 151.643C96.5503 113.846 126.174 82.1361 164.035 80.8432C201.896 79.5503 233.613 109.166 234.904 146.963C236.195 184.76 206.571 216.47 168.71 217.763C155.103 218.228 142.29 214.7 131.398 208.236L117.293 216.895C131.832 227.448 149.871 233.415 169.222 232.754C215.35 231.179 251.469 192.54 249.895 146.451C248.321 100.362 209.651 64.2767 163.523 65.8519C117.394 67.4271 81.2758 106.066 82.8497 152.155C83.0305 157.45 83.7009 162.613 84.816 167.602L98.5129 159.193Z" fill="#4051EB"/>
<path fill-rule="evenodd" clip-rule="evenodd" d="M256.5 149.5C256.5 199.758 215.758 240.5 165.5 240.5C144.526 240.5 125.21 233.404 109.82 221.483L98.0805 228.69C116.236 244.161 139.777 253.5 165.5 253.5C222.938 253.5 269.5 206.938 269.5 149.5C269.5 92.0624 222.938 45.5 165.5 45.5C108.062 45.5 61.5 92.0624 61.5 149.5C61.5 159.843 63.0099 169.834 65.8213 179.263L77.3503 172.185C75.4895 164.933 74.5 157.332 74.5 149.5C74.5 99.2421 115.242 58.5 165.5 58.5C215.758 58.5 256.5 99.2421 256.5 149.5Z" fill="#4CC638"/>
<path d="M37 229C87.3776 197.758 115.622 180.242 166 149" stroke="black" stroke-width="10" stroke-linecap="round" stroke-linejoin="round"/>
<path d="M50.0001 202.901L90.8727 177.001" stroke="black" stroke-width="8" stroke-linecap="round"/>
<path d="M67.6176 230.703L108.49 204.803" stroke="black" stroke-width="8" stroke-linecap="round"/>
</svg>
