<svg width="63" height="63" viewBox="0 0 63 63" fill="none" xmlns="http://www.w3.org/2000/svg">
<path d="M51.5454 22.9091L55.1249 15.0341L62.9999 11.4545L55.1249 7.875L51.5454 0L47.9658 7.875L40.0908 11.4545L47.9658 15.0341L51.5454 22.9091Z" fill="black"/>
<path d="M51.5454 40.0908L47.9658 47.9658L40.0908 51.5454L47.9658 55.1249L51.5454 62.9999L55.1249 55.1249L62.9999 51.5454L55.1249 47.9658L51.5454 40.0908Z" fill="black"/>
<path d="M30.0682 24.3408L22.9091 8.59082L15.75 24.3408L0 31.4999L15.75 38.659L22.9091 54.409L30.0682 38.659L45.8182 31.4999L30.0682 24.3408ZM25.7441 34.3349L22.9091 40.5776L20.0741 34.3349L13.8314 31.4999L20.0741 28.6649L22.9091 22.4222L25.7441 28.6649L31.9868 31.4999L25.7441 34.3349Z" fill="black"/>
</svg>
