<svg width="238" height="209" viewBox="0 0 238 209" fill="none" xmlns="http://www.w3.org/2000/svg">
<path fill-rule="evenodd" clip-rule="evenodd" d="M66.5129 114.193C66.1547 111.719 65.9283 109.2 65.841 106.643C64.5503 68.8461 94.1737 37.1361 132.035 35.8432C169.896 34.5503 201.613 64.1656 202.904 101.963C204.195 139.76 174.571 171.47 136.71 172.763C123.103 173.228 110.29 169.7 99.3977 163.236L85.2933 171.895C99.8315 182.448 117.871 188.415 137.222 187.754C183.35 186.179 219.469 147.54 217.895 101.451C216.321 55.3622 177.651 19.2767 131.523 20.8519C85.3944 22.4271 49.2758 61.0665 50.8497 107.155C51.0305 112.45 51.7009 117.613 52.816 122.602L66.5129 114.193Z" fill="#4051EB"/>
<path fill-rule="evenodd" clip-rule="evenodd" d="M224.5 104.5C224.5 154.758 183.758 195.5 133.5 195.5C112.526 195.5 93.2097 188.404 77.82 176.483L66.0805 183.69C84.2357 199.161 107.777 208.5 133.5 208.5C190.938 208.5 237.5 161.938 237.5 104.5C237.5 47.0624 190.938 0.499996 133.5 0.499991C76.0624 0.499986 29.5 47.0624 29.5 104.5C29.5 114.843 31.0099 124.834 33.8213 134.263L45.3503 127.185C43.4895 119.933 42.5 112.332 42.5 104.5C42.5 54.2421 83.2421 13.5 133.5 13.5C183.758 13.5 224.5 54.2421 224.5 104.5Z" fill="#4CC638"/>
<path d="M5 184C55.3776 152.758 83.6224 135.242 134 104" stroke="black" stroke-width="10" stroke-linecap="round" stroke-linejoin="round"/>
<path d="M18.0001 157.901L58.8727 132.001" stroke="black" stroke-width="8" stroke-linecap="round"/>
<path d="M35.6176 185.703L76.4901 159.803" stroke="black" stroke-width="8" stroke-linecap="round"/>
</svg>
