<svg width="26" height="17" viewBox="0 0 26 17" fill="none" xmlns="http://www.w3.org/2000/svg">
<path d="M24.5556 17H18.7778C17.9833 17 17.3333 16.3625 17.3333 15.5833C17.3333 14.8042 17.9833 14.1667 18.7778 14.1667H24.5556C25.35 14.1667 26 14.8042 26 15.5833C26 16.3625 25.35 17 24.5556 17ZM26 1.41667C26 2.19583 25.35 2.83333 24.5556 2.83333H1.44444C0.649999 2.83333 -3.57628e-07 2.19583 -3.57628e-07 1.41667C-3.57628e-07 0.6375 0.649999 0 1.44444 0L24.5556 0C25.35 0 26 0.6375 26 1.41667ZM24.5556 9.91667H10.1111C9.31667 9.91667 8.66667 9.27917 8.66667 8.5C8.66667 7.72083 9.31667 7.08333 10.1111 7.08333H24.5556C25.35 7.08333 26 7.72083 26 8.5C26 9.27917 25.35 9.91667 24.5556 9.91667Z" fill="black"/>
</svg>
