<svg xmlns="http://www.w3.org/2000/svg" version="1.1" xmlns:xlink="http://www.w3.org/1999/xlink" xmlns:svgjs="http://svgjs.dev/svgjs" viewBox="0 0 1422 800"><g fill="hsl(305, 77%, 40%)"><path d="M1305 449H1355C1383 449 1405 471 1405 499H1355C1327 499 1305 477 1305 449Z " transform="matrix(-0.026569600442440694,-0.5069781777805302,0.5069781777805302,-0.026569600442440694,1150.6941523315359,1173.5494215023355)" opacity="0.78"></path><path d="M1128 26H1178C1206 26 1228 48 1228 76H1178C1150 76 1128 54 1128 26Z " transform="matrix(-0.1187165992538643,-0.47614627278161453,0.47614627278161453,-0.1187165992538643,1293.5646940091897,617.954855898689)" opacity="0.75"></path><path d="M643 714H693C721 714 743 736 743 764H693C665 764 643 742 643 714Z " transform="matrix(0.03128423655668997,0.2225989095833766,-0.2225989095833766,0.03128423655668997,835.8206182483291,561.6199048433261)" opacity="0.34"></path><path d="M-3 581H47C75 581 97 603 97 631H47C19 631 -3 609 -3 581Z " transform="matrix(-0.3562043907641711,0.05641723307232571,-0.05641723307232571,-0.3562043907641711,97.93044960774543,819.2082508486885)" opacity="0.55"></path><path d="M336 701H386C414 701 436 723 436 751H386C358 751 336 729 336 701Z " transform="matrix(0.03130452074565212,0.22274323908736104,-0.22274323908736104,0.03130452074565212,535.6280465696022,617.2940276509352)" opacity="0.34"></path><path d="M1303 579H1353C1381 579 1403 601 1403 629H1353C1325 629 1303 607 1303 579Z " transform="matrix(-0.026569600442440694,-0.5069781777805302,0.5069781777805302,-0.026569600442440694,1082.733850019182,1305.9895132042916)" opacity="0.78"></path><path d="M1170 482H1220C1248 482 1270 504 1270 532H1220C1192 532 1170 510 1170 482Z " transform="matrix(-0.2393247251624602,-0.398303229707059,0.398303229707059,-0.2393247251624602,1310.0364272367226,1114.2675758999794)" opacity="0.71"></path><path d="M428 159H478C506 159 528 181 528 209H478C450 209 428 187 428 159Z " transform="matrix(0.06170232877264265,0.20181922363256752,-0.20181922363256752,0.06170232877264265,485.64102399506925,76.17718260946647)" opacity="0.32"></path><path d="M709 440H759C787 440 809 462 809 490H759C731 490 709 468 709 440Z " transform="matrix(-0.008414291208443217,0.24095377424119163,-0.24095377424119163,-0.008414291208443217,877.4299520493626,286.02873076286164)" opacity="0.37"></path><path d="M481 716H531C559 716 581 738 581 766H531C503 766 481 744 481 716Z " transform="matrix(0.06800310073021854,0.19749534485638529,-0.19749534485638529,0.06800310073021854,641.2344040508356,585.7396742401675)" opacity="0.32"></path><path d="M933 174H983C1011 174 1033 196 1033 224H983C955 224 933 202 933 174Z " transform="matrix(-0.32758545290401736,0.11279671714685448,-0.11279671714685448,-0.32758545290401736,1327.463046916873,153.3103321725415)" opacity="0.53"></path><path d="M357 31H407C435 31 457 53 457 81H407C379 81 357 59 357 31Z " transform="matrix(0.04904503022260719,0.21243736516276038,-0.21243736516276038,0.04904503022260719,398.9351651485135,-33.20852931370948)" opacity="0.33"></path><path d="M29 160H79C107 160 129 182 129 210H79C51 210 29 188 29 160Z " transform="matrix(-0.32752557076528593,0.11277609807294639,-0.11277609807294639,-0.32752557076528593,125.73809823395268,236.68291884381514)" opacity="0.53"></path><path d="M809 194H859C887 194 909 216 909 244H859C831 244 809 222 809 194Z " transform="matrix(-0.11164264237224043,0.2507534803038891,-0.2507534803038891,-0.11164264237224043,1009.8160419843063,28.0524990984799)" opacity="0.42"></path><path d="M824 473H874C902 473 924 495 924 523H874C846 523 824 501 824 473Z " transform="matrix(-0.15663264967255527,0.24119312942021157,-0.24119312942021157,-0.15663264967255527,1131.0111142650785,365.2002644236676)" opacity="0.44"></path><path d="M126 337H176C204 337 226 359 226 387H176C148 387 126 365 126 337Z " transform="matrix(-0.21213231219852882,0.21966943981606177,-0.21966943981606177,-0.21213231219852882,292.85562416035543,400.1300756082406)" opacity="0.47"></path><path d="M423 575H473C501 575 523 597 523 625H473C445 625 423 603 423 575Z " transform="matrix(0.0555117605541191,0.20717271080557034,-0.20717271080557034,0.0555117605541191,571.0465637412439,468.7002514564938)" opacity="0.33"></path><path d="M179 44H229C257 44 279 66 279 94H229C201 94 179 72 179 44Z " transform="matrix(-0.1212225819204122,0.248543125397582,-0.248543125397582,-0.1212225819204122,273.9094469122075,20.44798243646217)" opacity="0.42"></path><path d="M602 356H652C680 356 702 378 702 406H652C624 406 602 384 602 356Z " transform="matrix(0.04545577420605105,0.2138526039794417,-0.2138526039794417,0.04545577420605105,703.840677333822,224.24945223289856)" opacity="0.33"></path><path d="M621 514H671C699 514 721 536 721 564H671C643 564 621 542 621 514Z " transform="matrix(0.04545577420605105,0.2138526039794417,-0.2138526039794417,0.04545577420605105,755.7657290526588,371.0042404327331)" opacity="0.33"></path><path d="M379 416H429C457 416 479 438 479 466H429C401 466 379 444 379 416Z " transform="matrix(0.045560436370770084,0.2143450007509021,-0.2143450007509021,0.045560436370770084,503.98071812808746,328.9538422383534)" opacity="0.33"></path><path d="M1181 238H1231C1259 238 1281 260 1281 288H1231C1203 288 1181 266 1181 238Z " transform="matrix(-0.2393247251624602,-0.398303229707059,0.398303229707059,-0.2393247251624602,1420.854987262032,816.2536784871168)" opacity="0.71"></path><path d="M672 25H722C750 25 772 47 772 75H722C694 75 672 53 672 25Z " transform="matrix(-0.004165017528484887,0.23861369439834013,-0.23861369439834013,-0.004165017528484887,736.937827375483,-122.07083647917733)" opacity="0.36"></path><path d="M784 336H834C862 336 884 358 884 386H834C806 386 784 364 784 336Z " transform="matrix(-0.11164264237224043,0.2507534803038891,-0.2507534803038891,-0.11164264237224043,1017.6319701281525,192.17459132293527)" opacity="0.42"></path><path d="M253 365H303C331 365 353 387 353 415H303C275 415 253 393 253 365Z " transform="matrix(-0.03029529457373438,0.24673537414603194,-0.24673537414603194,-0.03029529457373438,408.406270172794,327.05434651750875)" opacity="0.38"></path><path d="M1301 36H1351C1379 36 1401 58 1401 86H1351C1323 86 1301 64 1301 36Z " transform="matrix(0.28861121533721423,-0.48032972406197283,0.48032972406197283,0.28861121533721423,931.7861349116433,692.3201730721552)" opacity="0.86"></path><path d="M1068 149H1118C1146 149 1168 171 1168 199H1118C1090 199 1068 177 1068 149Z " transform="matrix(-0.3664488908461404,-0.20312593709084328,0.20312593709084328,-0.3664488908461404,1492.345946912178,464.85690467479117)" opacity="0.64"></path><path d="M26 36H76C104 36 126 58 126 86H76C48 86 26 64 26 36Z " transform="matrix(-0.3264133694999943,0.11239313646577077,-0.11239313646577077,-0.3264133694999943,107.6633974064116,72.36933716810108)" opacity="0.53"></path><path d="M882 597H932C960 597 982 619 982 647H932C904 647 882 625 882 597Z " transform="matrix(-0.24559417187758628,0.19887823903221974,-0.19887823903221974,-0.24559417187758628,1284.5960328679512,589.4050561298299)" opacity="0.48"></path><path d="M685 259H735C763 259 785 281 785 309H735C707 309 685 287 685 259Z " transform="matrix(0.012157403039937889,0.2319770691728567,-0.2319770691728567,0.012157403039937889,791.945796410737,110.04415169460796)" opacity="0.35"></path><path d="M825 46H875C903 46 925 68 925 96H875C847 96 825 74 825 46Z " transform="matrix(-0.2114974145611181,0.21901198406636893,-0.21901198406636893,-0.2114974145611181,1075.6100886096906,-105.61916962423345)" opacity="0.47"></path><path d="M1167 599H1217C1245 599 1267 621 1267 649H1217C1189 649 1167 627 1167 599Z " transform="matrix(-0.2393247251624602,-0.398303229707059,0.398303229707059,-0.2393247251624602,1259.7169751855092,1258.0736590548659)" opacity="0.71"></path><path d="M912 326H962C990 326 1012 348 1012 376H962C934 376 912 354 912 326Z " transform="matrix(-0.28955487843361827,0.1605028900080608,-0.1605028900080608,-0.28955487843361827,1296.8883074459702,298.22998214244546)" opacity="0.51"></path></g><g fill="none" stroke-width="3" stroke="hsl(305, 77%, 40%)"><path d="M330 265H380C408 265 430 287 430 315H380C352 315 330 293 330 265Z " transform="matrix(0.01617036626747249,0.23124701123991612,-0.23124701123991612,0.01617036626747249,440.91689407793615,197.43672951126484)" opacity="0.35"></path><path d="M1315 182H1365C1393 182 1415 204 1415 232H1365C1337 232 1315 210 1315 182Z " transform="matrix(0.01800398771187862,-0.5155667522198518,0.5155667522198518,0.01800398771187862,1233.7022390637765,907.0217913237389)" opacity="0.79"></path><path d="M1049 418H1099C1127 418 1149 440 1149 468H1099C1071 468 1049 446 1049 418Z " transform="matrix(-0.37881431738885535,-0.15305091894694042,0.15305091894694042,-0.37881431738885535,1447.5153777168575,779.0177025259504)" opacity="0.63"></path><path d="M300 524H350C378 524 400 546 400 574H350C322 574 300 552 300 524Z " transform="matrix(-0.004183576579409365,0.23967694171370676,-0.23967694171370676,-0.004183576579409365,483.04689280361833,467.40985394229835)" opacity="0.37"></path><path d="M940 711H990C1018 711 1040 733 1040 761H990C962 761 940 739 940 711Z " transform="matrix(-0.32758545290401736,0.11279671714685448,-0.11279671714685448,-0.32758545290401736,1397.3279821950623,865.434143361971)" opacity="0.53"></path><path d="M1032 572H1082C1110 572 1132 594 1132 622H1082C1054 622 1032 600 1032 572Z " transform="matrix(-0.3846668764362063,-0.08176346864362716,0.08176346864362716,-0.3846668764362063,1449.3967695237297,915.1141983048198)" opacity="0.60"></path><path d="M29 713H79C107 713 129 735 129 763H79C51 763 29 741 29 713Z " transform="matrix(-0.32752557076528593,0.11277609807294639,-0.11277609807294639,-0.32752557076528593,188.10328046829204,970.8045594770184)" opacity="0.53"></path><path d="M680 132H730C758 132 780 154 780 182H730C702 182 680 160 680 132Z " transform="matrix(0.012180846243576586,0.23242439214588495,-0.23242439214588495,0.012180846243576586,757.5986118090931,-14.58219912673755)" opacity="0.36"></path><path d="M103 582H153C181 582 203 604 203 632H153C125 632 103 610 103 582Z " transform="matrix(-0.21213231219852882,0.21966943981606177,-0.21966943981606177,-0.21213231219852882,318.7955937347244,702.1548892126496)" opacity="0.47"></path><path d="M1170 358H1220C1248 358 1270 380 1270 408H1220C1192 408 1170 386 1170 358Z " transform="matrix(-0.2393247251624602,-0.398303229707059,0.398303229707059,-0.2393247251624602,1359.4260277203978,960.5913099798343)" opacity="0.71"></path><path d="M794 714H844C872 714 894 736 894 764H844C816 764 794 742 794 714Z " transform="matrix(-0.11164264237224043,0.2507534803038891,-0.2507534803038891,-0.11164264237224043,1123.533212106745,609.8679753366032)" opacity="0.42"></path><path d="M1205 116H1255C1283 116 1305 138 1305 166H1255C1227 166 1205 144 1205 116Z " transform="matrix(-0.05261100565946095,-0.500560282147279,0.500560282147279,-0.05261100565946095,1250.4478123198571,776.6213058928192)" opacity="0.77"></path><path d="M283 138H333C361 138 383 160 383 188H333C305 188 283 166 283 138Z " transform="matrix(1.4558166586115066e-17,0.23775290306153626,-0.23775290306153626,1.4558166586115066e-17,371.7537231990304,83.82828328050843)" opacity="0.36"></path><path d="M1069 708H1119C1147 708 1169 730 1169 758H1119C1091 758 1069 736 1069 708Z " transform="matrix(-0.37881431738885535,-0.15305091894694042,0.15305091894694042,-0.37881431738885535,1430.7068975700217,1181.9348729476574)" opacity="0.63"></path><path d="M559 197H609C637 197 659 219 659 247H609C581 247 559 225 559 197Z " transform="matrix(0.06505185823917035,0.20020903316535296,-0.20020903316535296,0.06505185823917035,613.8298236950536,85.63118627320424)" opacity="0.32"></path><path d="M731 593H781C809 593 831 615 831 643H781C753 643 731 621 731 593Z " transform="matrix(-0.03928522864675949,0.24803717187283283,-0.24803717187283283,-0.03928522864675949,964.9687357905299,448.56124007101494)" opacity="0.38"></path><path d="M1314 709H1364C1392 709 1414 731 1414 759H1364C1336 759 1314 737 1314 709Z " transform="matrix(0.01800398771187862,-0.5155667522198518,0.5155667522198518,0.01800398771187862,961.0165646316264,1424.018123047359)" opacity="0.79"></path><path d="M167 469H217C245 469 267 491 267 519H217C189 519 167 497 167 469Z " transform="matrix(-0.13167458566976173,0.24764387808263394,-0.24764387808263394,-0.13167458566976173,367.90946086315944,505.3085237769307)" opacity="0.43"></path><path d="M469 308H519C547 308 569 330 569 358H519C491 358 469 336 469 308Z " transform="matrix(0.06800310073021854,0.19749534485638529,-0.19749534485638529,0.06800310073021854,549.4723405581929,207.8548834763733)" opacity="0.32"></path><path d="M522 45H572C600 45 622 67 622 95H572C544 95 522 73 522 45Z " transform="matrix(0.07335451373088599,0.19109504156626234,-0.19109504156626234,0.07335451373088599,543.4178710555716,-44.441179737064076)" opacity="0.31"></path><path d="M221 612H271C299 612 321 634 321 662H271C243 662 221 640 221 612Z " transform="matrix(-0.06250861812355511,0.25070837375162797,-0.25070837375162797,-0.06250861812355511,447.6410695912705,608.8760204580134)" opacity="0.39"></path><path d="M505 457H555C583 457 605 479 605 507H555C527 507 505 485 505 457Z " transform="matrix(0.06773079769881368,0.19670451943055522,-0.19670451943055522,0.06773079769881368,612.2209856426861,340.1827472252137)" opacity="0.32"></path><path d="M1196 715H1246C1274 715 1296 737 1296 765H1246C1218 765 1196 743 1196 715Z " transform="matrix(-0.18632322518391878,-0.43895001085744684,0.43895001085744684,-0.18632322518391878,1153.3357305446523,1424.8109001644787)" opacity="0.73"></path><path d="M168 207H218C246 207 268 229 268 257H218C190 257 168 235 168 207Z " transform="matrix(-0.13167458566976173,0.24764387808263394,-0.24764387808263394,-0.13167458566976173,304.15843939117906,208.56213845337052)" opacity="0.43"></path><path d="M19 440H69C97 440 119 462 119 490H69C41 490 19 468 19 440Z " transform="matrix(-0.32752557076528593,0.11277609807294639,-0.11277609807294639,-0.32752557076528593,144.0401499867248,609.5178396388246)" opacity="0.53"></path><path d="M1306 319H1356C1384 319 1406 341 1406 369H1356C1328 369 1306 347 1306 319Z " transform="matrix(-0.026569600442440694,-0.5069781777805302,0.5069781777805302,-0.026569600442440694,1217.6278850434471,1040.6023516225987)" opacity="0.78"></path><path d="M557 612H607C635 612 657 634 657 662H607C579 662 557 640 557 612Z " transform="matrix(0.06505185823917035,0.20020903316535296,-0.20020903316535296,0.06505185823917035,695.0466761751535,474.0350831702792)" opacity="0.32"></path><path d="M942 469H992C1020 469 1042 491 1042 519H992C964 519 942 497 942 469Z " transform="matrix(-0.32758545290401736,0.11279671714685448,-0.11279671714685448,-0.32758545290401736,1372.6863475513317,543.9328703249049)" opacity="0.53"></path><path d="M10 292H60C88 292 110 314 110 342H60C32 342 10 320 10 292Z " transform="matrix(-0.32752557076528593,0.11277609807294639,-0.11277609807294639,-0.32752557076528593,115.40155733504116,414.0590400482189)" opacity="0.53"></path><path d="M1039 281H1089C1117 281 1139 303 1139 331H1089C1061 331 1039 309 1039 281Z " transform="matrix(-0.3846668764362063,-0.08176346864362716,0.08176346864362716,-0.3846668764362063,1482.8826070340788,512.7484815423891)" opacity="0.60"></path><path d="M974 38H1024C1052 38 1074 60 1074 88H1024C996 88 974 66 974 38Z " transform="matrix(-0.3845559163881949,-0.08173988335733912,0.08173988335733912,-0.3845559163881949,1412.6356457299992,170.92866329037156)" opacity="0.60"></path><path d="M181 721H231C259 721 281 743 281 771H231C203 771 181 749 181 721Z " transform="matrix(-0.13167458566976173,0.24764387808263394,-0.24764387808263394,-0.13167458566976173,446.1591623393599,787.0235050725538)" opacity="0.43"></path></g></svg>