<svg xmlns="http://www.w3.org/2000/svg" version="1.1" xmlns:xlink="http://www.w3.org/1999/xlink" xmlns:svgjs="http://svgjs.dev/svgjs" viewBox="0 0 1422 800"><defs><filter id="llleaves-blur-2" x="-100%" y="-100%" width="400%" height="400%"><feGaussianBlur in="SourceGraphic" stdDeviation="2"></feGaussianBlur></filter><filter id="llleaves-blur-3" x="-100%" y="-100%" width="400%" height="400%"><feGaussianBlur in="SourceGraphic" stdDeviation="4"></feGaussianBlur></filter><filter id="llleaves-blur-4" x="-100%" y="-100%" width="400%" height="400%"><feGaussianBlur in="SourceGraphic" stdDeviation="12"></feGaussianBlur></filter></defs><g fill="#0060ff"><path d="M925 141H975C1003 141 1025 163 1025 191H975C947 191 925 169 925 141Z " transform="matrix(-0.3813847345288665,-0.04008515086465938,0.04008515086465938,-0.3813847345288665,1340.1959811221116,268.39288802483475)" filter="url(#llleaves-blur-2)" opacity="0.59"></path><path d="M271 35H321C349 35 371 57 371 85H321C293 85 271 63 271 35Z " transform="matrix(-0.33341135794084314,0.10193408166931142,-0.10193408166931142,-0.33341135794084314,434.1410907991693,47.28384126060162)" filter="url(#llleaves-blur-2)" opacity="0.53"></path><path d="M1315 197H1365C1393 197 1415 219 1415 247H1365C1337 247 1315 225 1315 197Z " transform="matrix(-0.17192807681196703,-0.4478879528166907,0.4478879528166907,-0.17192807681196703,1500.2506993230297,871.5350886470395)" opacity="0.74"></path><path d="M293 279H343C371 279 393 301 393 329H343C315 329 293 307 293 279Z " transform="matrix(-0.20150202488263003,0.2237906705980723,-0.2237906705980723,-0.20150202488263003,480.14755839655606,288.4964155491807)" filter="url(#llleaves-blur-2)" opacity="0.46"></path><path d="M926 588H976C1004 588 1026 610 1026 638H976C948 638 926 616 926 588Z " transform="matrix(-0.3772545777006234,-0.013174020147590075,0.013174020147590075,-0.3772545777006234,1336.1247934853357,857.11489979453)" filter="url(#llleaves-blur-2)" opacity="0.58"></path><path d="M1291 726H1341C1369 726 1391 748 1391 776H1341C1313 776 1291 754 1291 726Z " transform="matrix(-0.20705163382714414,-0.424518760241063,0.424518760241063,-0.20705163382714414,1299.842652021162,1475.7754344874506)" opacity="0.73"></path><path d="M1151 38H1201C1229 38 1251 60 1251 88H1201C1173 88 1151 66 1151 38Z " transform="matrix(-0.3000034074976,-0.33318753885823643,0.33318753885823643,-0.3000034074976,1540.3132774565488,482.0584488410908)" opacity="0.69"></path><path d="M784 184H834C862 184 884 206 884 234H834C806 234 784 212 784 184Z " transform="matrix(-0.34610496468900764,0.07990462713732802,-0.07990462713732802,-0.34610496468900764,1139.351607622334,214.69547858747103)" filter="url(#llleaves-blur-2)" opacity="0.54"></path><path d="M625 574H675C703 574 725 596 725 624H675C647 624 625 602 625 574Z " transform="matrix(-0.28884556701588415,0.160109712268912,-0.160109712268912,-0.28884556701588415,965.8764753848002,663.9444388609991)" filter="url(#llleaves-blur-2)" opacity="0.51"></path><path d="M1142 718H1192C1220 718 1242 740 1242 768H1192C1164 768 1142 746 1142 718Z " transform="matrix(-0.33722639956087735,-0.2730805539362383,0.2730805539362383,-0.33722639956087735,1391.0750167019407,1319.071235165728)" opacity="0.67"></path><path d="M1039 263H1089C1117 263 1139 285 1139 313H1089C1061 313 1039 291 1039 263Z " transform="matrix(-0.38212451737715836,-0.1315760230479422,0.1315760230479422,-0.38212451737715836,1467.239704785918,541.3381501038307)" opacity="0.62"></path><path d="M706 454H756C784 454 806 476 806 504H756C728 504 706 482 706 454Z " transform="matrix(-0.3166842707557914,0.1279487506948214,-0.1279487506948214,-0.3166842707557914,1056.7007602741978,533.9625101667391)" filter="url(#llleaves-blur-2)" opacity="0.52"></path><path d="M11 575H61C89 575 111 597 111 625H61C33 625 11 603 11 575Z " transform="matrix(-0.16171492596363096,0.23975223725960687,-0.23975223725960687,-0.16171492596363096,214.71595283954562,682.4040691053425)" filter="url(#llleaves-blur-3)" opacity="0.44"></path><path d="M37 710H87C115 710 137 732 137 760H87C59 760 37 738 37 710Z " transform="matrix(-0.16171492596363096,0.23975223725960687,-0.23975223725960687,-0.16171492596363096,277.28709294464693,833.002025941683)" filter="url(#llleaves-blur-3)" opacity="0.44"></path><path d="M850 712H900C928 712 950 734 950 762H900C872 762 850 740 850 712Z " transform="matrix(-0.3637563539226034,0.03823233340206608,-0.03823233340206608,-0.3637563539226034,1255.5579482476658,970.6793327790994)" filter="url(#llleaves-blur-2)" opacity="0.56"></path><path d="M1194 328H1244C1272 328 1294 350 1294 378H1244C1216 378 1194 356 1194 328Z " transform="matrix(-0.3176842092554596,-0.3067840748114589,0.3067840748114589,-0.3176842092554596,1530.9043779053468,846.781914932632)" opacity="0.68"></path><path d="M995 28H1045C1073 28 1095 50 1095 78H1045C1017 78 995 56 995 28Z " transform="matrix(-0.3673459679082512,-0.20362319502622195,0.20362319502622195,-0.3673459679082512,1418.0845071277326,285.2555751015393)" opacity="0.64"></path><path d="M447 328H497C525 328 547 350 547 378H497C469 378 447 356 447 328Z " transform="matrix(-0.23600793008733995,0.2051585636443838,-0.2051585636443838,-0.23600793008733995,686.7169142198754,334.34699318957223)" filter="url(#llleaves-blur-2)" opacity="0.48"></path><path d="M655 162H705C733 162 755 184 755 212H705C677 212 655 190 655 162Z " transform="matrix(-0.29740494867702555,0.15153539015652903,-0.15153539015652903,-0.29740494867702555,943.007606776574,135.7822753422508)" filter="url(#llleaves-blur-2)" opacity="0.51"></path><path d="M1073 598H1123C1151 598 1173 620 1173 648H1123C1095 648 1073 626 1073 598Z " transform="matrix(-0.37580149052404377,-0.16731760356300812,0.16731760356300812,-0.37580149052404377,1440.7862068387471,1045.0219973977373)" opacity="0.63"></path><path d="M1320 628H1370C1398 628 1420 650 1420 678H1370C1342 678 1320 656 1320 628Z " transform="matrix(-0.17192807681196703,-0.4478879528166907,0.4478879528166907,-0.17192807681196703,1313.0706320430959,1378.8755295170808)" opacity="0.74"></path><path d="M137 39H187C215 39 237 61 237 89H187C159 89 137 67 137 39Z " transform="matrix(-0.32752557076528593,0.11277609807294639,-0.11277609807294639,-0.32752557076528593,255.46495200977705,63.87250618933732)" filter="url(#llleaves-blur-2)" opacity="0.53"></path><path d="M316 397H366C394 397 416 419 416 447H366C338 447 316 425 316 397Z " transform="matrix(-0.2068308138420067,0.22179889303310804,-0.22179889303310804,-0.2068308138420067,535.299210726146,428.1042085912093)" filter="url(#llleaves-blur-2)" opacity="0.46"></path><path d="M904 262H954C982 262 1004 284 1004 312H954C926 312 904 290 904 262Z " transform="matrix(-0.3772545777006234,-0.013174020147590075,0.013174020147590075,-0.3772545777006234,1310.1199233440361,407.8400790208798)" filter="url(#llleaves-blur-2)" opacity="0.58"></path><path d="M413 40H463C491 40 513 62 513 90H463C435 90 413 68 413 40Z " transform="matrix(-0.3408158620584585,0.09132133500628095,-0.09132133500628095,-0.3408158620584585,626.7336309084745,44.871252925891724)" filter="url(#llleaves-blur-2)" opacity="0.54"></path><path d="M1305 519H1355C1383 519 1405 541 1405 569H1355C1327 569 1305 547 1305 519Z " transform="matrix(-0.20705163382714414,-0.424518760241063,0.424518760241063,-0.20705163382714414,1404.616758264642,1231.8590089286067)" opacity="0.73"></path><path d="M424 477H474C502 477 524 499 524 527H474C446 527 424 505 424 477Z " transform="matrix(-0.23054055071350563,0.2075796442370918,-0.2075796442370918,-0.23054055071350563,687.4812024452218,519.3386050897983)" filter="url(#llleaves-blur-2)" opacity="0.47"></path><path d="M436 181H486C514 181 536 203 536 231H486C458 231 436 209 436 181Z " transform="matrix(-0.23600793008733995,0.2051585636443838,-0.2051585636443838,-0.23600793008733995,642.9625181331903,154.9105716668215)" filter="url(#llleaves-blur-2)" opacity="0.48"></path><path d="M15 307H65C93 307 115 329 115 357H65C37 357 15 335 15 307Z " transform="matrix(-0.16171492596363096,0.23975223725960687,-0.23975223725960687,-0.16171492596363096,155.1092129578255,370.10545999805106)" filter="url(#llleaves-blur-3)" opacity="0.44"></path><path d="M23 441H73C101 441 123 463 123 491H73C45 491 23 469 23 441Z " transform="matrix(-0.16171492596363096,0.23975223725960687,-0.23975223725960687,-0.16171492596363096,196.52973215832185,523.8572421791007)" filter="url(#llleaves-blur-3)" opacity="0.44"></path><path d="M797 338H847C875 338 897 360 897 388H847C819 388 797 366 797 338Z " transform="matrix(-0.34610496468900764,0.07990462713732802,-0.07990462713732802,-0.34610496468900764,1169.1562847424395,420.95688299679296)" filter="url(#llleaves-blur-2)" opacity="0.54"></path><path d="M149 286H199C227 286 249 308 249 336H199C171 336 149 314 149 286Z " transform="matrix(-0.1719957925981693,0.23673189932922997,-0.23673189932922997,-0.1719957925981693,306.85078341842626,317.3810435315139)" filter="url(#llleaves-blur-3)" opacity="0.45"></path><path d="M1170 476H1220C1248 476 1270 498 1270 526H1220C1192 526 1170 504 1170 476Z " transform="matrix(-0.3176842092554596,-0.3067840748114589,0.3067840748114589,-0.3176842092554596,1453.8759138111197,1034.4363601069651)" opacity="0.68"></path><path d="M1019 487H1069C1097 487 1119 509 1119 537H1069C1041 537 1019 515 1019 487Z " transform="matrix(-0.38212451737715836,-0.1315760230479422,0.1315760230479422,-0.38212451737715836,1410.124185275636,848.3025215353553)" opacity="0.62"></path><path d="M547 712H597C625 712 647 734 647 762H597C569 762 547 740 547 712Z " transform="matrix(-0.2684360871120582,0.18106242698493882,-0.18106242698493882,-0.2684360871120582,890.6993526937986,826.7431272915784)" filter="url(#llleaves-blur-2)" opacity="0.50"></path></g><g fill="none" stroke-width="3" stroke="#0060ff"><path d="M996 713H1046C1074 713 1096 735 1096 763H1046C1018 763 996 741 996 713Z " transform="matrix(-0.3853232306110481,-0.09607187153733489,0.09607187153733489,-0.3853232306110481,1378.1470580246032,1122.8597218190057)" filter="url(#llleaves-blur-2)" opacity="0.61"></path><path d="M144 580H194C222 580 244 602 244 630H194C166 630 144 608 144 580Z " transform="matrix(-0.1719957925981693,0.23673189932922997,-0.23673189932922997,-0.1719957925981693,370.58998285822895,663.1314660520218)" filter="url(#llleaves-blur-3)" opacity="0.45"></path><path d="M697 710H747C775 710 797 732 797 760H747C719 760 697 738 697 710Z " transform="matrix(-0.3166842707557914,0.1279487506948214,-0.1279487506948214,-0.3166842707557914,1077.60548201527,872.1852222364749)" filter="url(#llleaves-blur-2)" opacity="0.52"></path><path d="M1265 112H1315C1343 112 1365 134 1365 162H1315C1287 162 1265 140 1265 112Z " transform="matrix(-0.21408247823112597,-0.42016052082098543,0.42016052082098543,-0.21408247823112597,1538.9564675214556,718.8403843972601)" opacity="0.72"></path><path d="M308 155H358C386 155 408 177 408 205H358C330 205 308 183 308 155Z " transform="matrix(-0.2068308138420067,0.22179889303310804,-0.22179889303310804,-0.2068308138420067,471.96923210139784,137.82554278570854)" filter="url(#llleaves-blur-2)" opacity="0.46"></path><path d="M774 590H824C852 590 874 612 874 640H824C796 640 774 618 774 590Z " transform="matrix(-0.33680150001001,0.09657627604451566,-0.09657627604451566,-0.33680150001001,1160.9188457756254,742.5540710454752)" filter="url(#llleaves-blur-2)" opacity="0.54"></path><path d="M1200 605H1250C1278 605 1300 627 1300 655H1250C1222 655 1200 633 1200 605Z " transform="matrix(-0.2948098511132928,-0.3391399388582612,0.3391399388582612,-0.2948098511132928,1404.8541524109114,1239.655129774201)" opacity="0.69"></path><path d="M172 161H222C250 161 272 183 272 211H222C194 211 172 189 172 161Z " transform="matrix(-0.17692020591131177,0.2347810430946229,-0.2347810430946229,-0.17692020591131177,304.9455597279111,166.7857667324977)" filter="url(#llleaves-blur-3)" opacity="0.45"></path><path d="M850 474H900C928 474 950 496 950 524H900C872 524 850 502 850 474Z " transform="matrix(-0.3637563539226034,0.03823233340206608,-0.03823233340206608,-0.3637563539226034,1246.458652897974,646.1053205455196)" filter="url(#llleaves-blur-2)" opacity="0.56"></path><path d="M1172 202H1222C1250 202 1272 224 1272 252H1222C1194 252 1172 230 1172 202Z " transform="matrix(-0.3176842092554596,-0.3067840748114589,0.3067840748114589,-0.3176842092554596,1540.5701187279703,674.004454920592)" opacity="0.68"></path><path d="M386 716H436C464 716 486 738 486 766H436C408 766 386 744 386 716Z " transform="matrix(-0.2214273013056129,0.21382985930665405,-0.21382985930665405,-0.2214273013056129,690.9902291154779,811.847811609758)" filter="url(#llleaves-blur-2)" opacity="0.47"></path><path d="M1084 377H1134C1162 377 1184 399 1184 427H1134C1106 427 1084 405 1084 377Z " transform="matrix(-0.36625564188065246,-0.20301881744008943,0.20301881744008943,-0.36625564188065246,1467.720333281744,779.4581070130837)" opacity="0.64"></path><path d="M1061 138H1111C1139 138 1161 160 1161 188H1111C1083 188 1061 166 1061 138Z " transform="matrix(-0.37097722842945496,-0.18902233906771515,0.18902233906771515,-0.37097722842945496,1492.3450595170868,433.4731069382327)" opacity="0.64"></path><path d="M485 589H535C563 589 585 611 585 639H535C507 639 485 617 485 589Z " transform="matrix(-0.2539648119698274,0.19137621264345794,-0.19137621264345794,-0.2539648119698274,788.3761689669409,667.548120785224)" filter="url(#llleaves-blur-2)" opacity="0.49"></path><path d="M563 426H613C641 426 663 448 663 476H613C585 476 563 454 563 426Z " transform="matrix(-0.2684360871120582,0.18106242698493882,-0.18106242698493882,-0.2684360871120582,859.2104759698991,461.07340754577075)" filter="url(#llleaves-blur-2)" opacity="0.50"></path><path d="M11 41H61C89 41 111 63 111 91H61C33 91 11 69 11 41Z " transform="matrix(-0.3264133694999943,0.11239313646577077,-0.11239313646577077,-0.3264133694999943,88.32916254624051,80.68730106258761)" filter="url(#llleaves-blur-2)" opacity="0.53"></path><path d="M697 38H747C775 38 797 60 797 88H747C719 88 697 66 697 38Z " transform="matrix(-0.3711687493179141,0.012961498337471076,-0.012961498337471076,-0.3711687493179141,1025.0796301357425,76.7013919489377)" filter="url(#llleaves-blur-2)" opacity="0.57"></path><path d="M1302 414H1352C1380 414 1402 436 1402 464H1352C1324 464 1302 442 1302 414Z " transform="matrix(-0.20705163382714414,-0.424518760241063,0.424518760241063,-0.20705163382714414,1445.5700731884722,1103.8450310960334)" opacity="0.73"></path><path d="M1308 26H1358C1386 26 1408 48 1408 76H1358C1330 76 1308 54 1308 26Z " transform="matrix(-0.15736276928051005,-0.45701466628564813,0.45701466628564813,-0.15736276928051005,1548.3908927023647,679.6514180492162)" opacity="0.74"></path><path d="M551 236H601C629 236 651 258 651 286H601C573 286 551 264 551 236Z " transform="matrix(-0.2684360871120582,0.18106242698493882,-0.18106242698493882,-0.2684360871120582,809.5873817974159,222.24330011829895)" filter="url(#llleaves-blur-2)" opacity="0.50"></path><path d="M24 172H74C102 172 124 194 124 222H74C46 222 24 200 24 172Z " transform="matrix(-0.16171492596363096,0.23975223725960687,-0.23975223725960687,-0.16171492596363096,133.19809526145124,211.1161748576244)" filter="url(#llleaves-blur-3)" opacity="0.44"></path><path d="M1313 305H1363C1391 305 1413 327 1413 355H1363C1335 355 1313 333 1313 305Z " transform="matrix(-0.17192807681196703,-0.4478879528166907,0.4478879528166907,-0.17192807681196703,1449.5349442652032,997.2075450370985)" opacity="0.74"></path><path d="M258 509H308C336 509 358 531 358 559H308C280 559 258 537 258 509Z " transform="matrix(-0.19227392853292072,0.22914314509131062,-0.22914314509131062,-0.19227392853292072,489.58280946689945,566.098189148456)" filter="url(#llleaves-blur-3)" opacity="0.46"></path><path d="M943 382H993C1021 382 1043 404 1043 432H993C965 432 943 410 943 382Z " transform="matrix(-0.3816679696974692,-0.04011492008045571,0.04011492008045571,-0.3816679696974692,1355.6695214368415,602.1729793067624)" filter="url(#llleaves-blur-2)" opacity="0.59"></path><path d="M160 417H210C238 417 260 439 260 467H210C182 467 160 445 160 417Z " transform="matrix(-0.17692020591131177,0.2347810430946229,-0.2347810430946229,-0.17692020591131177,350.92646428919886,470.894711962929)" filter="url(#llleaves-blur-3)" opacity="0.45"></path><path d="M550 54H600C628 54 650 76 650 104H600C572 104 550 82 550 54Z " transform="matrix(-0.35418908370969654,0.062453091730428525,-0.062453091730428525,-0.35418908370969654,817.4472444725219,69.50908257480891)" filter="url(#llleaves-blur-2)" opacity="0.55"></path><path d="M328 605H378C406 605 428 627 428 655H378C350 655 328 633 328 605Z " transform="matrix(-0.2068308138420067,0.22179889303310804,-0.22179889303310804,-0.2068308138420067,595.9153502431366,676.4634311539494)" filter="url(#llleaves-blur-2)" opacity="0.46"></path><path d="M664 310H714C742 310 764 332 764 360H714C686 360 664 338 664 310Z " transform="matrix(-0.3059211709223711,0.14265338479284595,-0.14265338479284595,-0.3059211709223711,980.2165999441763,335.62907551690233)" filter="url(#llleaves-blur-2)" opacity="0.52"></path><path d="M211 710H261C289 710 311 732 311 760H261C233 760 211 738 211 710Z " transform="matrix(-0.18194380498692025,0.23287745072237795,-0.23287745072237795,-0.18194380498692025,479.652259382534,807.9476820268458)" filter="url(#llleaves-blur-3)" opacity="0.45"></path><path d="M838 39H888C916 39 938 61 938 89H888C860 89 838 67 838 39Z " transform="matrix(-0.3828853690133667,-0.047012411910452925,0.047012411910452925,-0.3828853690133667,1224.9934133216007,130.25168539333765)" filter="url(#llleaves-blur-2)" opacity="0.59"></path></g></svg>