<svg xmlns="http://www.w3.org/2000/svg" version="1.1" xmlns:xlink="http://www.w3.org/1999/xlink" xmlns:svgjs="http://svgjs.dev/svgjs" viewBox="0 0 1422 800"><defs><filter id="llleaves-blur-2" x="-100%" y="-100%" width="400%" height="400%"><feGaussianBlur in="SourceGraphic" stdDeviation="2"></feGaussianBlur></filter><filter id="llleaves-blur-3" x="-100%" y="-100%" width="400%" height="400%"><feGaussianBlur in="SourceGraphic" stdDeviation="4"></feGaussianBlur></filter><filter id="llleaves-blur-4" x="-100%" y="-100%" width="400%" height="400%"><feGaussianBlur in="SourceGraphic" stdDeviation="12"></feGaussianBlur></filter></defs><g fill="hsl(105, 100%, 50%)"><path d="M336 595H386C414 595 436 617 436 645H386C358 645 336 623 336 595Z " transform="matrix(-0.18149855111286506,0.23230755175207943,-0.23230755175207943,-0.18149855111286506,600.0891228158551,642.8583867136737)" filter="url(#llleaves-blur-3)" opacity="0.45"></path><path d="M1038 710H1088C1116 710 1138 732 1138 760H1088C1060 760 1038 738 1038 710Z " transform="matrix(-0.2633955262089263,-0.3761677957400682,0.3761677957400682,-0.2633955262089263,1098.0910026463619,1337.866273528755)" opacity="0.71"></path><path d="M743 225H793C821 225 843 247 843 275H793C765 275 743 253 743 225Z " transform="matrix(-0.21655441775755532,0.21655441775755535,-0.21655441775755535,-0.21655441775755532,1018.8662577211302,132.4109511576474)" filter="url(#llleaves-blur-2)" opacity="0.47"></path><path d="M35 40H85C113 40 135 62 135 90H85C57 90 35 68 35 40Z " transform="matrix(-0.375,4.592425496802574e-17,-4.592425496802574e-17,-0.375,116.875,89.375)" filter="url(#llleaves-blur-2)" opacity="0.57"></path><path d="M4 502H54C82 502 104 524 104 552H54C26 552 4 530 4 502Z " transform="matrix(-0.30470144285563056,-0.32675229321775173,0.32675229321775173,-0.30470144285563056,-101.7445806115511,705.2222842186759)" opacity="0.69"></path><path d="M1201 558H1251C1279 558 1301 580 1301 608H1251C1223 608 1201 586 1201 558Z " transform="matrix(0.2235985861306964,-0.5022106470425328,0.5022106470425328,0.2235985861306964,678.4893615247022,1080.9075437360125)" opacity="0.85"></path><path d="M1330 42H1380C1408 42 1430 64 1430 92H1380C1352 92 1330 70 1330 42Z " transform="matrix(0.5034214501186666,-0.32692571228556383,0.32692571228556383,0.5034214501186666,663.3743761131071,484.42824579612744)" opacity="0.92"></path><path d="M1180 350H1230C1258 350 1280 372 1280 400H1230C1202 400 1180 378 1180 350Z " transform="matrix(0.14795125366480696,-0.5159673390150176,0.5159673390150176,0.14795125366480696,854.5322058616558,954.158106864169)" opacity="0.82"></path><path d="M162 254H212C240 254 262 276 262 304H212C184 304 162 282 162 254Z " transform="matrix(-0.3570457382710532,0.056550489426321675,-0.056550489426321675,-0.3570457382710532,303.471283063407,366.6270572192436)" filter="url(#llleaves-blur-2)" opacity="0.55"></path><path d="M1072 580H1122C1150 580 1172 602 1172 630H1122C1094 630 1072 608 1072 580Z " transform="matrix(-0.1935806303444682,-0.43478921446923413,0.43478921446923413,-0.1935806303444682,1076.1499924926068,1209.949779992884)" opacity="0.73"></path><path d="M251 491H301C329 491 351 513 351 541H301C273 541 251 519 251 491Z " transform="matrix(-0.27214827422943516,0.17673515576019347,-0.17673515576019347,-0.27214827422943516,474.11197091531983,603.2312276185703)" filter="url(#llleaves-blur-2)" opacity="0.50"></path><path d="M363 419H413C441 419 463 441 463 469H413C385 469 363 447 363 419Z " transform="matrix(-0.18149855111286506,0.23230755175207943,-0.23230755175207943,-0.18149855111286506,591.1034545875366,428.64233782050326)" filter="url(#llleaves-blur-3)" opacity="0.45"></path><path d="M530 596H580C608 596 630 618 630 646H580C552 646 530 624 530 596Z " transform="matrix(-0.09152225409781241,0.2514553265113279,-0.2514553265113279,-0.09152225409781241,789.2366651402658,531.9912304181713)" filter="url(#llleaves-blur-3)" opacity="0.41"></path><path d="M976 432H1026C1054 432 1076 454 1076 482H1026C998 482 976 460 976 432Z " transform="matrix(-0.356536906323988,-0.23153777422194732,0.23153777422194732,-0.356536906323988,1285.9941030689818,857.4951225417803)" opacity="0.65"></path><path d="M1242 34H1292C1320 34 1342 56 1342 84H1292C1264 84 1242 62 1242 34Z " transform="matrix(0.3426956668165511,-0.45477251004065794,0.45477251004065794,0.3426956668165511,822.4056203806172,626.3470386303534)" opacity="0.88"></path><path d="M157 121H207C235 121 257 143 257 171H207C179 171 157 149 157 121Z " transform="matrix(-0.32985475299644174,0.10717630614458422,-0.10717630614458422,-0.32985475299644174,290.9276745673727,171.97329856555154)" filter="url(#llleaves-blur-2)" opacity="0.53"></path><path d="M454 310H504C532 310 554 332 554 360H504C476 360 454 338 454 310Z " transform="matrix(-0.10151666355267558,0.25126255936191255,-0.25126255936191255,-0.10151666355267558,639.3373558167892,242.3717523717424)" filter="url(#llleaves-blur-3)" opacity="0.41"></path><path d="M1183 128H1233C1261 128 1283 150 1283 178H1233C1205 178 1183 156 1183 128Z " transform="matrix(0.14815945709285605,-0.5166934306572531,0.5166934306572531,0.14815945709285605,971.2652945139487,767.414603065186)" opacity="0.83"></path><path d="M544 436H594C622 436 644 458 644 486H594C566 486 544 464 544 436Z " transform="matrix(-0.09175418286412419,0.2520925455596915,-0.2520925455596915,-0.09175418286412419,764.7166481243077,353.5557062379045)" filter="url(#llleaves-blur-3)" opacity="0.41"></path><path d="M18 194H68C96 194 118 216 118 244H68C40 244 18 222 18 194Z " transform="matrix(-0.3451737538716476,-0.2601070802191649,0.2601070802191649,-0.3451737538716476,34.50836469527492,312.280333552794)" opacity="0.66"></path><path d="M1173 704H1223C1251 704 1273 726 1273 754H1223C1195 754 1173 732 1173 704Z " transform="matrix(0.14795125366480696,-0.5159673390150176,0.5159673390150176,0.14795125366480696,665.9154266259933,1252.1715916937221)" opacity="0.82"></path><path d="M1305 708H1355C1383 708 1405 730 1405 758H1355C1327 758 1305 736 1305 708Z " transform="matrix(0.4112565755123758,-0.411256575512376,0.411256575512376,0.4112565755123758,496.29627033015913,988.8015899686981)" opacity="0.89"></path><path d="M1115 452H1165C1193 452 1215 474 1215 502H1165C1137 502 1115 480 1115 452Z " transform="matrix(-0.026579646747546242,-0.5071698727014559,0.5071698727014559,-0.026579646747546242,954.045259182297,1080.5313931957755)" opacity="0.78"></path><path d="M413 704H463C491 704 513 726 513 754H463C435 754 413 732 413 704Z " transform="matrix(-0.13159560391813327,0.2474953350120669,-0.2474953350120669,-0.13159560391813327,704.3528638378925,710.3428551457322)" filter="url(#llleaves-blur-3)" opacity="0.43"></path><path d="M700 50H750C778 50 800 72 800 100H750C722 100 700 78 700 50Z " transform="matrix(-0.08198921836478217,0.2523368675871571,-0.2523368675871571,-0.08198921836478217,830.4171788426233,-108.10345931300918)" filter="url(#llleaves-blur-3)" opacity="0.41"></path><path d="M297 305H347C375 305 397 327 397 355H347C319 355 297 333 297 305Z " transform="matrix(-0.2402829144753283,0.20162130491444996,-0.20162130491444996,-0.2402829144753283,496.91320194470745,339.33076897154416)" filter="url(#llleaves-blur-2)" opacity="0.48"></path><path d="M164 394H214C242 394 264 416 264 444H214C186 444 164 422 164 394Z " transform="matrix(-0.3570457382710532,0.056550489426321675,-0.056550489426321675,-0.3570457382710532,314.1024430596342,556.5003595983385)" filter="url(#llleaves-blur-2)" opacity="0.55"></path><path d="M242 32H292C320 32 342 54 342 82H292C264 82 242 60 242 32Z " transform="matrix(-0.08678135210237681,0.25203134675513855,-0.25203134675513855,-0.08678135210237681,331.7059415789369,-11.646616182664985)" filter="url(#llleaves-blur-3)" opacity="0.41"></path><path d="M1214 239H1264C1292 239 1314 261 1314 289H1264C1236 289 1214 267 1214 239Z " transform="matrix(0.2235985861306964,-0.5022106470425328,0.5022106470425328,0.2235985861306964,848.7877763115712,839.7642311232576)" opacity="0.85"></path></g><g fill="none" stroke-width="3" stroke="hsl(105, 100%, 50%)"><path d="M1317 574H1367C1395 574 1417 596 1417 624H1367C1339 624 1317 602 1317 574Z " transform="matrix(0.45824699458694773,-0.3710810994761095,0.3710810994761095,0.45824699458694773,518.2987798134529,831.77791322626)" opacity="0.91"></path><path d="M612 307H662C690 307 712 329 712 357H662C634 357 612 335 612 307Z " transform="matrix(-0.11166725131967147,0.25080875290478627,-0.25080875290478627,-0.11166725131967147,819.1922263380116,203.0381330151624)" filter="url(#llleaves-blur-3)" opacity="0.42"></path><path d="M195 618H245C273 618 295 640 295 668H245C217 668 195 646 195 618Z " transform="matrix(-0.333283618079133,0.10189502767434133,-0.10189502767434133,-0.333283618079133,392.17298922398913,832.3370846446688)" filter="url(#llleaves-blur-2)" opacity="0.53"></path><path d="M942 570H992C1020 570 1042 592 1042 620H992C964 620 942 598 942 570Z " transform="matrix(-0.3783908858048368,-0.15287984148215003,0.15287984148215003,-0.3783908858048368,1276.400253036519,971.7993798041707)" opacity="0.63"></path><path d="M1046 59H1096C1124 59 1146 81 1146 109H1096C1068 109 1046 87 1046 59Z " transform="matrix(-0.2802389921315818,-0.3586895529930404,0.3586895529930404,-0.2802389921315818,1373.0120129247982,500.66382541942517)" opacity="0.70"></path><path d="M971 181H1021C1049 181 1071 203 1071 231H1021C993 231 971 209 971 181Z " transform="matrix(-0.356536906323988,-0.23153777422194732,0.23153777422194732,-0.356536906323988,1337.3273998670707,515.8466701833497)" opacity="0.65"></path><path d="M693 440H743C771 440 793 462 793 490H743C715 490 693 468 693 440Z " transform="matrix(-0.1822729328975964,0.2332987152375691,-0.2332987152375691,-0.1822729328975964,986.9126917283836,376.4159683758685)" filter="url(#llleaves-blur-3)" opacity="0.45"></path><path d="M786 714H836C864 714 886 736 886 764H836C808 764 786 742 786 714Z " transform="matrix(-0.28915942749243223,0.16028368797195588,-0.16028368797195588,-0.28915942749243223,1196.1869267949487,818.6916537723523)" filter="url(#llleaves-blur-2)" opacity="0.51"></path><path d="M122 717H172C200 717 222 739 222 767H172C144 767 122 745 122 717Z " transform="matrix(-0.38413639999603516,-0.06084122872165418,0.06084122872165418,-0.38413639999603516,192.92726908785065,1037.4939001371827)" filter="url(#llleaves-blur-2)" opacity="0.60"></path><path d="M899 300H949C977 300 999 322 999 350H949C921 350 899 328 899 300Z " transform="matrix(-0.3841704716705902,-0.0746751750449124,0.0746751750449124,-0.3841704716705902,1289.3083457257935,520.7221444105637)" filter="url(#llleaves-blur-2)" opacity="0.60"></path><path d="M324 170H374C402 170 424 192 424 220H374C346 220 324 198 324 170Z " transform="matrix(-0.207149240584685,0.22214036390839137,-0.22214036390839137,-0.207149240584685,494.79118694080853,152.3136058122752)" filter="url(#llleaves-blur-2)" opacity="0.46"></path><path d="M1315 170H1365C1393 170 1415 192 1415 220H1365C1337 220 1315 198 1315 170Z " transform="matrix(0.45824699458694773,-0.3710810994761095,0.3710810994761095,0.45824699458694773,667.1320379909749,612.1675368404347)" opacity="0.91"></path><path d="M437 520H487C515 520 537 542 537 570H487C459 570 437 548 437 520Z " transform="matrix(-0.11620015954815631,0.24919204631533617,-0.24919204631533617,-0.11620015954815631,679.3991429418102,486.9725603981765)" filter="url(#llleaves-blur-3)" opacity="0.42"></path><path d="M1093 202H1143C1171 202 1193 224 1193 252H1143C1115 252 1093 230 1093 202Z " transform="matrix(-0.11072242781849681,-0.47959152483798717,0.47959152483798717,-0.11072242781849681,1160.6884588583189,800.3071040046182)" opacity="0.76"></path><path d="M792 583H842C870 583 892 605 892 633H842C814 633 792 611 792 583Z " transform="matrix(-0.28915942749243223,0.16028368797195588,-0.16028368797195588,-0.28915942749243223,1182.924720235577,648.8500666430119)" filter="url(#llleaves-blur-2)" opacity="0.51"></path><path d="M844 460H894C922 460 944 482 944 510H894C866 510 844 488 844 460Z " transform="matrix(-0.35393348200593533,0.06240802225374037,-0.06240802225374037,-0.35393348200593533,1240.6844237063704,600.8649668780347)" filter="url(#llleaves-blur-2)" opacity="0.55"></path><path d="M555 40H605C633 40 655 62 655 90H605C577 90 555 68 555 40Z " transform="matrix(0.027617335550752208,0.22492514814294448,-0.22492514814294448,0.027617335550752208,602.9116466210863,-72.87484143728031)" filter="url(#llleaves-blur-3)" opacity="0.35"></path><path d="M1138 23H1188C1216 23 1238 45 1238 73H1188C1160 73 1138 51 1138 23Z " transform="matrix(0.09171273056058925,-0.5201287414557685,0.5201287414557685,0.09171273056058925,1054.079096504143,661.5107337825447)" opacity="0.81"></path><path d="M654 560H704C732 560 754 582 754 610H704C676 610 654 588 654 560Z " transform="matrix(-0.13151643640081642,0.24734644256705332,-0.24734644256705332,-0.13151643640081642,941.2852401279008,487.80521972727206)" filter="url(#llleaves-blur-3)" opacity="0.43"></path><path d="M486 178H536C564 178 586 200 586 228H536C508 228 486 206 486 178Z " transform="matrix(-0.09183878334946846,0.25232498348284976,-0.25232498348284976,-0.09183878334946846,636.4475595223336,86.39708187313464)" filter="url(#llleaves-blur-3)" opacity="0.41"></path><path d="M820 33H870C898 33 920 55 920 83H870C842 83 820 61 820 33Z " transform="matrix(-0.2593844806619095,0.18845385630546144,-0.18845385630546144,-0.2593844806619095,1106.594821841578,-90.9105551073607)" filter="url(#llleaves-blur-2)" opacity="0.49"></path><path d="M108 537H158C186 537 208 559 208 587H158C130 587 108 565 108 537Z " transform="matrix(-0.38413639999603516,-0.06084122872165418,0.06084122872165418,-0.38413639999603516,184.50078065780392,787.4975709357931)" filter="url(#llleaves-blur-2)" opacity="0.60"></path><path d="M628 166H678C706 166 728 188 728 216H678C650 216 628 194 628 166Z " transform="matrix(-0.11166725131967147,0.25080875290478627,-0.25080875290478627,-0.11166725131967147,801.6148681995514,42.28011053261213)" filter="url(#llleaves-blur-3)" opacity="0.42"></path><path d="M405 44H455C483 44 505 66 505 94H455C427 94 405 72 405 44Z " transform="matrix(0.0200935384056089,0.22967019492365362,-0.22967019492365362,0.0200935384056089,461.70468347518005,-36.8863928402494)" filter="url(#llleaves-blur-3)" opacity="0.35"></path><path d="M541 718H591C619 718 641 740 641 768H591C563 768 541 746 541 718Z " transform="matrix(-0.09152225409781241,0.2514553265113279,-0.2514553265113279,-0.09152225409781241,831.9209597697238,662.3909368264798)" filter="url(#llleaves-blur-3)" opacity="0.41"></path><path d="M23 348H73C101 348 123 370 123 398H73C45 398 23 376 23 348Z " transform="matrix(-0.3451737538716476,-0.2601070802191649,0.2601070802191649,-0.3451737538716476,1.1777431108817638,520.7376270501236)" opacity="0.66"></path><path d="M1042 317H1092C1120 317 1142 339 1142 367H1092C1064 367 1042 345 1042 317Z " transform="matrix(-0.2633955262089263,-0.3761677957400682,0.3761677957400682,-0.2633955262089263,1250.9785284770442,842.8565029116073)" opacity="0.71"></path><path d="M1294 441H1344C1372 441 1394 463 1394 491H1344C1316 491 1294 469 1294 441Z " transform="matrix(0.4112565755123758,-0.411256575512376,0.411256575512376,0.4112565755123758,599.6255983225998,827.0832732998662)" opacity="0.89"></path><path d="M1316 312H1366C1394 312 1416 334 1416 362H1366C1338 362 1316 340 1316 312Z " transform="matrix(0.45824699458694773,-0.3710810994761095,0.3710810994761095,0.45824699458694773,614.9802748707805,689.4675447085642)" opacity="0.91"></path><path d="M273 719H323C351 719 373 741 373 769H323C295 769 273 747 273 719Z " transform="matrix(-0.27214827422943516,0.17673515576019347,-0.17673515576019347,-0.27214827422943516,542.3948484616915,889.3928607161572)" filter="url(#llleaves-blur-2)" opacity="0.50"></path><path d="M910 703H960C988 703 1010 725 1010 753H960C932 753 910 731 910 703Z " transform="matrix(-0.3841704716705902,-0.0746751750449124,0.0746751750449124,-0.3841704716705902,1274.4401253710703,1079.3642714193056)" filter="url(#llleaves-blur-2)" opacity="0.60"></path><path d="M841 156H891C919 156 941 178 941 206H891C863 206 841 184 841 156Z " transform="matrix(-0.35393348200593533,0.06240802225374037,-0.06240802225374037,-0.35393348200593533,1217.6505844952153,189.45641241499163)" filter="url(#llleaves-blur-2)" opacity="0.55"></path><path d="M775 346H825C853 346 875 368 875 396H825C797 396 775 374 775 346Z " transform="matrix(-0.25381485192319625,0.19126320964296542,-0.19126320964296542,-0.25381485192319625,1105.3559036141771,307.3731621080593)" filter="url(#llleaves-blur-2)" opacity="0.49"></path><path d="M7 679H57C85 679 107 701 107 729H57C29 729 7 707 7 679Z " transform="matrix(-0.30470144285563056,-0.32675229321775173,0.32675229321775173,-0.30470144285563056,-155.66563218252625,937.1346964837758)" opacity="0.69"></path><path d="M939 41H989C1017 41 1039 63 1039 91H989C961 91 939 69 939 41Z " transform="matrix(-0.3836800815021364,-0.1028067679904046,0.1028067679904046,-0.3836800815021364,1361.6743539182462,192.99877892165117)" filter="url(#llleaves-blur-2)" opacity="0.61"></path><path d="M664 699H714C742 699 764 721 764 749H714C686 749 664 727 664 699Z " transform="matrix(-0.15649021381841272,0.24097379743882644,-0.24097379743882644,-0.15649021381841272,1000.199042012057,665.2436234332088)" filter="url(#llleaves-blur-3)" opacity="0.44"></path></g></svg>